<svg width="24" height="24" viewBox="0 0 24 24" fill="none" xmlns="http://www.w3.org/2000/svg">
<path d="M7.29859 8.39977L12.5067 13.7027L17.7148 8.39977C18.2382 7.86674 19.0839 7.86674 19.6074 8.39977C20.1309 8.9328 20.1309 9.79385 19.6074 10.3269L13.4463 16.6002C12.9228 17.1333 12.0771 17.1333 11.5536 16.6002L5.39254 10.3269C5.26811 10.2004 5.16939 10.0502 5.10203 9.88491C5.03467 9.71957 5 9.54233 5 9.36333C5 9.18433 5.03467 9.00708 5.10203 8.84174C5.16939 8.6764 5.26811 8.52621 5.39254 8.39977C5.91604 7.88041 6.7751 7.86674 7.29859 8.39977Z" fill="black"/>
</svg>
