<svg width="44" height="44" viewBox="0 0 44 44" fill="none" xmlns="http://www.w3.org/2000/svg">
<path d="M39.6917 14.025L34.5767 8.91002C33.99 8.32335 33 8.72668 33 9.55168V12.8333H7.33332C6.32499 12.8333 5.49999 13.6583 5.49999 14.6667C5.49999 15.675 6.32499 16.5 7.33332 16.5H33V19.7817C33 20.6067 33.99 21.01 34.5583 20.4233L39.6733 15.3083C40.04 14.96 40.04 14.3733 39.6917 14.025ZM36.6667 27.5H11V24.2183C11 23.3933 10.01 22.99 9.44165 23.5767L4.32665 28.6917C3.95999 29.04 3.95999 29.6267 4.30832 29.975L9.42332 35.09C10.01 35.6767 11 35.2734 11 34.4484V31.1667H36.6667C37.675 31.1667 38.5 30.3417 38.5 29.3333C38.5 28.325 37.675 27.5 36.6667 27.5Z" fill="black"/>
</svg>
