<svg width="44" height="44" viewBox="0 0 44 44" fill="none" xmlns="http://www.w3.org/2000/svg">
<path d="M16.8849 20.1667H20.1666V36.6667C20.1666 37.675 20.9916 38.5 21.9999 38.5C23.0083 38.5 23.8333 37.675 23.8333 36.6667V20.1667H27.1149C27.9399 20.1667 28.3433 19.1767 27.7566 18.6083L22.6416 13.4933C22.2749 13.1267 21.7066 13.1267 21.3399 13.4933L16.2249 18.6083C15.6566 19.1767 16.0599 20.1667 16.8849 20.1667ZM7.33325 7.33333C7.33325 8.34167 8.15825 9.16667 9.16659 9.16667H34.8333C35.8416 9.16667 36.6666 8.34167 36.6666 7.33333C36.6666 6.325 35.8416 5.5 34.8333 5.5H9.16659C8.15825 5.5 7.33325 6.325 7.33325 7.33333Z" fill="black"/>
</svg>
