<svg width="44" height="44" viewBox="0 0 44 44" fill="none" xmlns="http://www.w3.org/2000/svg">
<path d="M29.3333 20.1667C32.3766 20.1667 34.8149 17.71 34.8149 14.6667C34.8149 11.6234 32.3766 9.16669 29.3333 9.16669C26.2899 9.16669 23.8333 11.6234 23.8333 14.6667C23.8333 17.71 26.2899 20.1667 29.3333 20.1667ZM14.6666 20.1667C17.7099 20.1667 20.1483 17.71 20.1483 14.6667C20.1483 11.6234 17.7099 9.16669 14.6666 9.16669C11.6233 9.16669 9.16658 11.6234 9.16658 14.6667C9.16658 17.71 11.6233 20.1667 14.6666 20.1667ZM14.6666 23.8334C10.3949 23.8334 1.83325 25.9784 1.83325 30.25V33C1.83325 34.0084 2.65825 34.8334 3.66659 34.8334H25.6666C26.6749 34.8334 27.4999 34.0084 27.4999 33V30.25C27.4999 25.9784 18.9383 23.8334 14.6666 23.8334ZM29.3333 23.8334C28.8016 23.8334 28.1966 23.87 27.5549 23.925C27.5916 23.9434 27.6099 23.98 27.6283 23.9984C29.7183 25.52 31.1666 27.555 31.1666 30.25V33C31.1666 33.6417 31.0383 34.265 30.8366 34.8334H40.3333C41.3416 34.8334 42.1666 34.0084 42.1666 33V30.25C42.1666 25.9784 33.6049 23.8334 29.3333 23.8334Z" fill="black"/>
</svg>
