<svg width="44" height="44" viewBox="0 0 44 44" fill="none" xmlns="http://www.w3.org/2000/svg">
<path d="M27.1149 23.8333H23.8333V7.33333C23.8333 6.325 23.0083 5.5 21.9999 5.5C20.9916 5.5 20.1666 6.325 20.1666 7.33333V23.8333H16.8849C16.0599 23.8333 15.6566 24.8233 16.2433 25.3917L21.3583 30.5067C21.7249 30.8733 22.2933 30.8733 22.6599 30.5067L27.7749 25.3917C28.3433 24.8233 27.9399 23.8333 27.1149 23.8333ZM7.33325 36.6667C7.33325 37.675 8.15825 38.5 9.16659 38.5H34.8333C35.8416 38.5 36.6666 37.675 36.6666 36.6667C36.6666 35.6583 35.8416 34.8333 34.8333 34.8333H9.16659C8.15825 34.8333 7.33325 35.6583 7.33325 36.6667Z" fill="black"/>
</svg>
